<svg xmlns="http://www.w3.org/2000/svg" xmlns:svg="http://www.w3.org/2000/svg" id="svg893" width="24" height="24" version="1.1" viewBox="0 0 6.35 6.35"><metadata id="metadata890"/><g id="layer1" transform="translate(0,-290.65)"><g id="g1245" transform="matrix(-0.27059109,0,0,0.27059109,9.702606,213.85654)"><path style="fill:#08c9f9;stroke-width:.35277775" id="path1249" d="m 14.751309,300.11592 c -3.132272,-1.54586 -3.15384,-7.62523 -0.03231,-9.1065 1.975693,-0.93752 17.624467,-0.84738 19.076632,0.10989 2.878464,1.8975 2.702789,7.55245 -0.278572,8.96719 -1.724478,0.81832 -17.11836,0.84245 -18.765752,0.0294 z"/><path style="fill:#0c182b;stroke-width:.35277775" id="path1247" d="m 14.884423,299.35369 c -2.524906,-1.5664 -2.334986,-6.47242 0.302777,-7.82138 1.057344,-0.54073 16.804318,-0.54073 17.861661,0 2.811904,1.43802 2.811904,6.59329 0,8.03131 -1.352754,0.6918 -17.002458,0.51094 -18.164438,-0.20993 z m 11.350274,-3.96555 v -2.1001 l -2.645833,0.9516 c -1.455208,0.52338 -2.645833,1.03355 -2.645833,1.13372 0,0.13148 4.164204,1.80454 5.203472,2.09061 0.04851,0.0134 0.08819,-0.92077 0.08819,-2.07583 z"/></g></g></svg>