<svg xmlns="http://www.w3.org/2000/svg" xmlns:osb="http://www.openswatchbook.org/uri/2009/osb" xmlns:svg="http://www.w3.org/2000/svg" xmlns:xlink="http://www.w3.org/1999/xlink" id="svg4505" width="32" height="32" version="1.1"><defs id="defs4507"><linearGradient id="linearGradient3820-7-2-2"><stop id="stop3822-2-6-36" offset="0" style="stop-color:#3d3d3d;stop-opacity:1"/><stop id="stop3864-8-7-6" offset=".5" style="stop-color:#686868;stop-opacity:.49803922"/><stop id="stop3824-1-2-4" offset="1" style="stop-color:#686868;stop-opacity:0"/></linearGradient><linearGradient id="linearGradient4526" osb:paint="solid"><stop style="stop-color:#fff;stop-opacity:1" id="stop4528" offset="0"/></linearGradient><radialGradient id="radialGradient3163" cx="99.157" cy="186.171" r="62.769" fx="99.157" fy="186.171" gradientTransform="matrix(0.6869404,0,0,0.21461693,-4.02174,68.573331)" gradientUnits="userSpaceOnUse" xlink:href="#linearGradient3820-7-2-2"/><linearGradient id="linearGradient877" x1="64.5" x2="64.5" y1="13.998" y2="117.93" gradientUnits="userSpaceOnUse" xlink:href="#linearGradient875"/><linearGradient id="linearGradient875"><stop style="stop-color:#a56de2;stop-opacity:1" id="stop871" offset="0"/><stop style="stop-color:#7239b3;stop-opacity:1" id="stop873" offset="1"/></linearGradient><linearGradient id="linearGradient963" x1="64.5" x2="64.5" y1="14.988" y2="117.93" gradientUnits="userSpaceOnUse" xlink:href="#linearGradient961"/><linearGradient id="linearGradient961"><stop style="stop-color:#fff;stop-opacity:.78538811" id="stop957" offset="0"/><stop id="stop973" offset=".491" style="stop-color:#fff;stop-opacity:.15068494"/><stop style="stop-color:#fff;stop-opacity:.35159817" id="stop959" offset="1"/></linearGradient></defs><metadata id="metadata4510"/><g id="g978" transform="matrix(0.27890697,0,0,0.28246809,-1.9894986,-2.4619242)" style="display:inline;stroke-width:3.56275225"><path id="path3818-0-5-0" d="m 107.21186,108.52868 a 43.118644,13.471312 0 1 1 -86.237286,0 43.118644,13.471312 0 1 1 86.237286,0 z" style="display:inline;fill:url(#radialGradient3163);fill-opacity:1;stroke:none;stroke-width:3.56275225"/><path id="path2555-7-1" d="m 64.5,13.998179 c -28.691806,0 -52.000001,23.308189 -52.000001,51.999997 0,28.691808 23.308195,52.000014 52.000001,52.000004 28.691802,0 52.00002,-23.308196 52,-52.000004 0,-28.691808 -23.308198,-51.999997 -52,-51.999997 z" style="color:#000;display:inline;overflow:visible;visibility:visible;opacity:1;fill:url(#linearGradient877);fill-opacity:1;fill-rule:nonzero;stroke:#452981;stroke-width:3.56275225;stroke-linecap:round;stroke-linejoin:round;stroke-miterlimit:4;stroke-dasharray:none;stroke-dashoffset:0;stroke-opacity:.66666667;marker:none;enable-background:accumulate"/><path style="color:#000;display:inline;overflow:visible;visibility:visible;opacity:1;fill:none;fill-opacity:1;fill-rule:nonzero;stroke:url(#linearGradient963);stroke-width:3.56275225;stroke-linecap:round;stroke-linejoin:round;stroke-miterlimit:4;stroke-dasharray:none;stroke-dashoffset:0;stroke-opacity:.21461188;marker:none;enable-background:accumulate" id="path950" d="m 64.5,14.98848 c -28.145295,0 -51.009524,22.864223 -51.009524,51.009521 0,28.145297 22.864229,51.009529 51.009524,51.009519 28.145292,0 51.00954,-22.864222 51.00952,-51.009519 C 115.50952,37.852703 92.645292,14.98848 64.5,14.98848 Z"/></g><g id="g866" transform="matrix(0.30666667,0,0,0.30237359,-3.6266662,-2.6276491)" style="stroke-width:3.28393674"><path id="path842" d="m 51.499711,60.312442 a 4.6927512,4.6928052 0 0 1 -4.686626,4.687554 4.6927512,4.6928052 0 0 1 -4.6875,-4.687554 4.6927512,4.6928052 0 0 1 4.6875,-4.687554 4.6927512,4.6928052 0 0 1 4.686626,4.687554 z m 49.999419,19.424993 c 0,4.959741 -1.749501,8.097321 -5.464669,9.934359 A 3.168176,3.1682124 0 0 1 92.53109,89.202689 L 82.815642,80.62576 C 81.071395,79.081038 79.552947,77.487304 75.30304,77.487304 H 52.700467 c -4.249907,0 -5.771857,1.593734 -7.512604,3.137581 l -9.718947,8.578679 a 3.1506723,3.1507085 0 0 1 -2.100448,0.796429 3.1427956,3.1428317 0 0 1 -1.402051,-0.328199 c -3.716042,-1.837913 -5.466416,-4.974618 -5.466416,-9.930858 0,-6.444074 2.953755,-17.066337 8.378162,-30.803426 C 37.446837,42.427796 42.040693,40 46.425377,40 c 2.049687,0 4.055616,0.531244 5.790237,1.42482 7.57474,3.903378 16.155947,3.821985 23.574904,0 C 77.519012,40.531244 79.52494,40 81.575503,40 c 4.383809,0 8.98029,2.427796 11.548964,8.93751 C 98.546247,62.671973 101.5,73.294237 101.5,79.737435 Z M 54.625877,60.312442 a 7.8110417,7.8111314 0 0 0 -7.811917,-7.812881 7.8110417,7.8111314 0 0 0 -7.812792,7.812881 7.8110417,7.8111314 0 0 0 7.812792,7.812882 7.8110417,7.8111314 0 0 0 7.811917,-7.812882 z m 12.500292,-7.812881 a 3.1244167,3.1244526 0 0 0 -3.126166,-3.124453 3.1244167,3.1244526 0 0 0 -3.124417,3.124453 3.1244167,3.1244526 0 0 0 3.124417,3.125327 3.1244167,3.1244526 0 0 0 3.124416,-3.124452 z m 10.937209,7.812881 c 0,-1.297041 -1.050224,-2.343777 -2.34375,-2.343777 a 2.3428748,2.3429018 0 0 0 -2.34375,2.343777 c 0,1.297042 1.050224,2.343777 2.34375,2.343777 a 2.3428748,2.3429018 0 0 0 2.34375,-2.343777 z m 5.468167,5.469105 c 0,-1.297041 -1.050224,-2.343777 -2.343751,-2.343777 a 2.3428748,2.3429018 0 0 0 -2.34375,2.343777 c 0,1.296167 1.050225,2.343777 2.34375,2.343777 a 2.3428748,2.3429018 0 0 0 2.343751,-2.343777 z m 0,-11.034481 c 0,-1.297042 -1.050224,-2.343777 -2.343751,-2.343777 a 2.3428748,2.3429018 0 0 0 -2.34375,2.343777 2.3446252,2.3446522 0 0 0 4.687501,0 z m 5.419157,5.566252 c 0,-1.297917 -1.050224,-2.344653 -2.343751,-2.344653 a 2.3428748,2.3429018 0 0 0 -2.34375,2.343777 c 0,1.297042 1.050224,2.343777 2.34375,2.343777 a 2.3428748,2.3429018 0 0 0 2.343751,-2.343777 z" style="opacity:.07000002;fill:#000;fill-opacity:1;stroke:#000;stroke-width:3.28393674;stroke-miterlimit:4;stroke-dasharray:none;stroke-opacity:1"/><path id="path241" d="m 51.499711,60.312442 a 4.6927512,4.6928052 0 0 1 -4.686626,4.687554 4.6927512,4.6928052 0 0 1 -4.6875,-4.687554 4.6927512,4.6928052 0 0 1 4.6875,-4.687554 4.6927512,4.6928052 0 0 1 4.686626,4.687554 z m 49.999419,19.424993 c 0,4.959741 -1.749501,8.097321 -5.464669,9.934359 A 3.168176,3.1682124 0 0 1 92.53109,89.202689 L 82.815642,80.62576 C 81.071395,79.081038 79.552947,77.487304 75.30304,77.487304 H 52.700467 c -4.249907,0 -5.771857,1.593734 -7.512604,3.137581 l -9.718947,8.578679 a 3.1506723,3.1507085 0 0 1 -2.100448,0.796429 3.1427956,3.1428317 0 0 1 -1.402051,-0.328199 c -3.716042,-1.837913 -5.466416,-4.974618 -5.466416,-9.930858 0,-6.444074 2.953755,-17.066337 8.378162,-30.803426 C 37.446837,42.427796 42.040693,40 46.425377,40 c 2.049687,0 4.055616,0.531244 5.790237,1.42482 7.57474,3.903378 16.155947,3.821985 23.574904,0 C 77.519012,40.531244 79.52494,40 81.575503,40 c 4.383809,0 8.98029,2.427796 11.548964,8.93751 C 98.546247,62.671973 101.5,73.294237 101.5,79.737435 Z M 54.625877,60.312442 a 7.8110417,7.8111314 0 0 0 -7.811917,-7.812881 7.8110417,7.8111314 0 0 0 -7.812792,7.812881 7.8110417,7.8111314 0 0 0 7.812792,7.812882 7.8110417,7.8111314 0 0 0 7.811917,-7.812882 z m 12.500292,-7.812881 a 3.1244167,3.1244526 0 0 0 -3.126166,-3.124453 3.1244167,3.1244526 0 0 0 -3.124417,3.124453 3.1244167,3.1244526 0 0 0 3.124417,3.125327 3.1244167,3.1244526 0 0 0 3.124416,-3.124452 z m 10.937209,7.812881 c 0,-1.297041 -1.050224,-2.343777 -2.34375,-2.343777 a 2.3428748,2.3429018 0 0 0 -2.34375,2.343777 c 0,1.297042 1.050224,2.343777 2.34375,2.343777 a 2.3428748,2.3429018 0 0 0 2.34375,-2.343777 z m 5.468167,5.469105 c 0,-1.297041 -1.050224,-2.343777 -2.343751,-2.343777 a 2.3428748,2.3429018 0 0 0 -2.34375,2.343777 c 0,1.296167 1.050225,2.343777 2.34375,2.343777 a 2.3428748,2.3429018 0 0 0 2.343751,-2.343777 z m 0,-11.034481 c 0,-1.297042 -1.050224,-2.343777 -2.343751,-2.343777 a 2.3428748,2.3429018 0 0 0 -2.34375,2.343777 2.3446252,2.3446522 0 0 0 4.687501,0 z m 5.419157,5.566252 c 0,-1.297917 -1.050224,-2.344653 -2.343751,-2.344653 a 2.3428748,2.3429018 0 0 0 -2.34375,2.343777 c 0,1.297042 1.050224,2.343777 2.34375,2.343777 a 2.3428748,2.3429018 0 0 0 2.343751,-2.343777 z" style="opacity:.15;fill:#000;fill-opacity:1;stroke-width:3.28393626"/><path style="fill:#eee;stroke:#452981;stroke-width:3.28393626;stroke-opacity:.26666667" id="path840" d="m 51.499711,59.312442 a 4.6927512,4.6928052 0 0 1 -4.686626,4.687554 4.6927512,4.6928052 0 0 1 -4.6875,-4.687554 4.6927512,4.6928052 0 0 1 4.6875,-4.687554 4.6927512,4.6928052 0 0 1 4.686626,4.687554 z m 49.999419,19.424993 c 0,4.959741 -1.749501,8.097321 -5.464669,9.934359 A 3.168176,3.1682124 0 0 1 92.53109,88.202689 L 82.815642,79.62576 C 81.071395,78.081038 79.552947,76.487304 75.30304,76.487304 H 52.700467 c -4.249907,0 -5.771857,1.593734 -7.512604,3.137581 l -9.718947,8.578679 a 3.1506723,3.1507085 0 0 1 -2.100448,0.796429 3.1427956,3.1428317 0 0 1 -1.402051,-0.328199 c -3.716042,-1.837913 -5.466416,-4.974618 -5.466416,-9.930858 0,-6.444074 2.953755,-17.066337 8.378162,-30.803426 C 37.446837,41.427796 42.040693,39 46.425377,39 c 2.049687,0 4.055616,0.531244 5.790237,1.42482 7.57474,3.903378 16.155947,3.821985 23.574904,0 C 77.519012,39.531244 79.52494,39 81.575503,39 c 4.383809,0 8.98029,2.427796 11.548964,8.93751 C 98.546247,61.671973 101.5,72.294237 101.5,78.737435 Z M 54.625877,59.312442 a 7.8110417,7.8111314 0 0 0 -7.811917,-7.812881 7.8110417,7.8111314 0 0 0 -7.812792,7.812881 7.8110417,7.8111314 0 0 0 7.812792,7.812882 7.8110417,7.8111314 0 0 0 7.811917,-7.812882 z m 12.500292,-7.812881 a 3.1244167,3.1244526 0 0 0 -3.126166,-3.124453 3.1244167,3.1244526 0 0 0 -3.124417,3.124453 3.1244167,3.1244526 0 0 0 3.124417,3.125327 3.1244167,3.1244526 0 0 0 3.124416,-3.124452 z m 10.937209,7.812881 c 0,-1.297041 -1.050224,-2.343777 -2.34375,-2.343777 a 2.3428748,2.3429018 0 0 0 -2.34375,2.343777 c 0,1.297042 1.050224,2.343777 2.34375,2.343777 a 2.3428748,2.3429018 0 0 0 2.34375,-2.343777 z m 5.468167,5.469105 c 0,-1.297041 -1.050224,-2.343777 -2.343751,-2.343777 a 2.3428748,2.3429018 0 0 0 -2.34375,2.343777 c 0,1.296167 1.050225,2.343777 2.34375,2.343777 a 2.3428748,2.3429018 0 0 0 2.343751,-2.343777 z m 0,-11.034481 c 0,-1.297042 -1.050224,-2.343777 -2.343751,-2.343777 a 2.3428748,2.3429018 0 0 0 -2.34375,2.343777 2.3446252,2.3446522 0 0 0 4.687501,0 z m 5.419157,5.566252 c 0,-1.297917 -1.050224,-2.344653 -2.343751,-2.344653 a 2.3428748,2.3429018 0 0 0 -2.34375,2.343777 c 0,1.297042 1.050224,2.343777 2.34375,2.343777 a 2.3428748,2.3429018 0 0 0 2.343751,-2.343777 z"/></g></svg>